pl05
version=1
nRows=6
nColumns=43
inDegrees=yes
endheader
time	pelvis_tilt	pelvis_list	pelvis_rotation	pelvis_tx	pelvis_ty	pelvis_tz	hip_flexion_r	hip_adduction_r	hip_rotation_r	knee_angle_r	ankle_angle_r	subtalar_angle_r	mtp_angle_r	hip_flexion_l	hip_adduction_l	hip_rotation_l	knee_angle_l	ankle_angle_l	subtalar_angle_l	mtp_angle_l	lumbar_extension	lumbar_bending	lumbar_rotation	neck_flexion	neck_lateral_bending	neck_rotation	arm_flex_r	arm_add_r	arm_rot_r	elbow_flex_r	pro_sup_r	wrist_flex_r	wrist_dev_r	hand_finger_flex_r	arm_flex_l	arm_add_l	arm_rot_l	elbow_flex_l	pro_sup_l	wrist_flex_l	wrist_dev_l	hand_finger_flex_l
      0.00250000	      0.84825209	     -9.55212570	     92.78384312	      0.00945952	      2.07084467	      1.57925909	      8.93310853	     -6.63299469	     -0.86834022	    -19.46101998	      2.62379818	      4.33716342	      2.71793838	     11.95767986	     -8.11732891	      0.49895704	    -25.12236618	      0.20665383	      3.61403284	      3.79683423	    -21.07800649	     -2.74417076	     -3.99945191	     -5.73583340	      7.72645652	     -1.59780130	     11.05198556	    -27.53091074	    -27.60723746	     45.44777024	    132.35313378	    -33.53542336	      9.78179064	     32.92437230	     11.14221621	    -39.53742709	    -23.05517644	     51.17580216	    125.82378776	    -34.32054432	      8.31282012	     57.97344892
      0.00500000	      0.84734926	     -9.55276802	     92.78415641	      0.00945474	      2.07084603	      1.57924613	      8.93295382	     -6.63284567	     -0.86844424	    -19.46100388	      2.62383920	      4.33712563	      2.71798311	     11.95774807	     -8.11750839	      0.49899825	    -25.12241917	      0.20666088	      3.61401833	      3.79690376	    -21.07833190	     -2.74396993	     -3.99895760	     -5.73586011	      7.72644931	     -1.59782981	     11.05210083	    -27.53062364	    -27.60704331	     45.44786066	    132.35305726	    -33.53544153	      9.78163696	     32.92441105	     11.14241594	    -39.53775254	    -23.05533043	     51.17581311	    125.82382859	    -34.32058423	      8.31276617	     57.97355191
      0.00750000	      0.84607560	     -9.55389727	     92.78467083	      0.00945537	      2.07084912	      1.57923148	      8.93263184	     -6.63255308	     -0.86860739	    -19.46099222	      2.62388588	      4.33707952	      2.71802776	     11.95793945	     -8.11768948	      0.49901679	    -25.12244648	      0.20665284	      3.61400844	      3.79697337	    -21.07899087	     -2.74371593	     -3.99816219	     -5.73592618	      7.72640807	     -1.59784904	     11.05223105	    -27.53009707	    -27.60672747	     45.44796179	    132.35298952	    -33.53542816	      9.78146359	     32.92445023	     11.14267696	    -39.53821035	    -23.05556146	     51.17583327	    125.82387273	    -34.32064900	      8.31271499	     57.97365258
      0.01000000	      0.83968616	     -9.56372867	     92.78864593	      0.00950751	      2.07088859	      1.57916915	      8.92966738	     -6.62895576	     -0.87107263	    -19.45930441	      2.62459696	      4.33639145	      2.71857454	     11.96378105	     -8.11794553	      0.49859780	    -25.12134150	      0.20637897	      3.61397823	      3.79783087	    -21.08844790	     -2.74671707	     -3.99244893	     -5.73686224	      7.72522807	     -1.59797603	     11.05181697	    -27.52345730	    -27.60326121	     45.44871568	    132.35204382	    -33.53552613	      9.77961856	     32.92492530	     11.14647060	    -39.54377292	    -23.05829473	     51.17605338	    125.82451176	    -34.32137294	      8.31200303	     57.97486481
      0.01250000	      0.83964439	     -9.56398516	     92.78847523	      0.00952338	      2.07088979	      1.57918357	      8.92964576	     -6.62862641	     -0.87131522	    -19.45896876	      2.62466772	      4.33632534	      2.71861857	     11.96436327	     -8.11791316	      0.49853137	    -25.12121127	      0.20633743	      3.61398342	      3.79790041	    -21.08911148	     -2.74720817	     -3.99269033	     -5.73692939	      7.72509251	     -1.59797957	     11.05151856	    -27.52301932	    -27.60309861	     45.44866527	    132.35193950	    -33.53556656	      9.77952335	     32.92496229	     11.14691981	    -39.54419051	    -23.05846124	     51.17618039	    125.82458520	    -34.32142636	      8.31191105	     57.97496167
      0.01500000	      0.83879728	     -9.56455756	     92.78850644	      0.00952413	      2.07089821	      1.57916558	      8.92964190	     -6.62789906	     -0.87165521	    -19.45855761	      2.62474792	      4.33624773	      2.71866246	     11.96520023	     -8.11803405	      0.49847220	    -25.12101885	      0.20627419	      3.61399146	      3.79796996	    -21.09013165	     -2.74769924	     -3.99257856	     -5.73705271	      7.72491580	     -1.59797017	     11.05143847	    -27.52238407	    -27.60279185	     45.44875292	    132.35184635	    -33.53557604	      9.77938607	     32.92500094	     11.14758761	    -39.54485152	    -23.05871573	     51.17640942	    125.82467579	    -34.32150414	      8.31180412	     57.97505401
